<?xml version="1.0" encoding="UTF-8"?>
<svg id="Layer_2" data-name="Layer 2" xmlns="http://www.w3.org/2000/svg" xmlns:xlink="http://www.w3.org/1999/xlink" viewBox="0 0 342.2 395.14">
  <defs>
    <style>
      .cls-1 {
        fill: #fff;
      }

      .cls-2 {
        fill: url(#linear-gradient);
      }
    </style>
    <linearGradient id="linear-gradient" x1="36.16" y1="332.51" x2="306.04" y2="62.63" gradientUnits="userSpaceOnUse">
      <stop offset="0" stop-color="#fddd55"/>
      <stop offset="1" stop-color="#f68a21"/>
    </linearGradient>
  </defs>
  <g id="Layer_2-2" data-name="Layer 2">
    <polygon class="cls-2" points="342.2 98.78 171.1 0 0 98.78 0 296.35 171.1 395.14 342.2 296.35 342.2 98.78"/>
    <path class="cls-1" d="M254.27,165.29c-20.61-24.59-28.74-37.81-48.07-55.26-10.62-9.58-20.62-16.83-28.49-22-4.02-2.65-9.22-2.65-13.24,0-7.86,5.17-17.87,12.42-28.48,22-19.34,17.45-27.47,30.67-48.08,55.26-8.91,10.63-22.44,26.11-40.39,44.15v31.15l12.41,6.88,13.48,7.47,97.68,54.16,97.68-54.15,13.48-7.48,12.42-6.88v-31.15c-17.96-18.04-31.49-33.52-40.4-44.15ZM210.41,133.4c7.06,8.95,12.34,18.01,16.29,26.54,4.18,9.01,6.88,17.43,8.66,24.55.39,1.56.39,3.1.07,4.54-9.57-6.21-20.1-11.07-31.31-14.31l-8.62-50.08-1.48-8.58c5.44,4.81,11.03,10.54,16.39,17.34ZM165.76,102.88c3.26-2.04,7.41-2.04,10.66,0,.56.35,1.12.71,1.7,1.09,2.64,1.72,4.44,4.48,4.98,7.59l.51,2.93,9.94,57.7c-7.27-1.41-14.77-2.14-22.45-2.14s-15.18.73-22.45,2.14l9.94-57.7.51-2.93c.54-3.11,2.33-5.87,4.98-7.59.57-.37,1.14-.74,1.7-1.09ZM106.83,184.49c1.78-7.12,4.48-15.54,8.66-24.55,3.95-8.53,9.22-17.59,16.28-26.54,5.36-6.8,10.95-12.53,16.39-17.34l-1.48,8.58-8.62,50.08c-11.21,3.24-21.74,8.1-31.31,14.31-.31-1.43-.31-2.98.08-4.54ZM171.09,288.52l-90.32-50.08c9.94-17.91,25.04-32.53,43.32-41.9t.02-.01c14.09-7.21,30.06-11.28,46.98-11.28s32.89,4.07,46.98,11.28c0,0,.01.01.02,0,18.28,9.38,33.39,24,43.33,41.92l-90.33,50.07Z"/>
  </g>
</svg>